# xmcd CD database file
#
# Track frame offsets:
#	150
#	25680
#	48679
#	69765
#	103359
#	125701
#	148958
#	172407
#	191665
#	221323
#
# Disc length: 3211 seconds
#
# Revision: 1
# Processed by: cddbd v1.4PL0 Copyright (c) Steve Scherf et al.
# Submitted via: CDex 1.40Release
#
DISCID=9f0c890a
DTITLE=Meshuggah - Nothing
DYEAR=2002
DGENRE=Metal
TTITLE0=Stengah
TTITLE1=Rational Gaze
TTITLE2=Perpetual Black Second
TTITLE3=Closed Eyes Visual
TTITLE4=Glints Collide
TTITLE5=Organic Shadows
TTITLE6=Straws Pulled at Random
TTITLE7=Spasm
TTITLE8=Nebulous
TTITLE9=Obsidian
EXTD=zuuuuuu YEAR: 2002 ID3G: 9
EXTT0=
EXTT1=
EXTT2=
EXTT3=
EXTT4=
EXTT5=
EXTT6=
EXTT7=
EXTT8=
EXTT9=
PLAYORDER=
